<?xml version="1.0" encoding="utf-8"?>
<!-- Generator: Adobe Illustrator 27.3.1, SVG Export Plug-In . SVG Version: 6.00 Build 0)  -->
<svg version="1.1" id="Layer_1" xmlns="http://www.w3.org/2000/svg" xmlns:xlink="http://www.w3.org/1999/xlink" x="0px" y="0px"
	 viewBox="0 0 366.4 61.7" style="enable-background:new 0 0 366.4 61.7;" xml:space="preserve">
<style type="text/css">
	.st0{fill:none;}
	.st1{fill:none;stroke:#C8C8C8;stroke-miterlimit:10;}
	.st2{fill:#4063D8;}
	.st3{fill:#CB3C33;}
	.st4{fill:#389826;}
	.st5{fill:#9558B2;}
</style>
<line class="st0" x1="176.5" y1="-34.9" x2="176.5" y2="-34.9"/>
<circle class="st0" cx="343.9" cy="-5.1" r="6.5"/>
<path class="st1" d="M156.2,31l11.1-0.1h1.5c0.4,3.1,0.8,6.2,1.5,6.2c1.5,0,1.5-12,3-12s1.5,12,3,12s1.5-12,3-12s1.5,12,3,12
	s1.5-12,3-12s1.5,12,3,12s1.5-12,3-12s1.5,12,3,12c0.8,0,1.1-3.1,1.5-6.2h1.6l11.1-0.1"/>
<path class="st1" d="M239.6,30.6l17.3-0.1h2.3c0.6,3.1,1.2,6.2,2.4,6.2c2.4,0,2.4-12,4.7-12s2.3,12,4.7,12s2.4-12,4.7-12
	s2.3,12,4.7,12s2.4-12,4.7-12s2.3,12,4.7,12s2.4-12,4.7-12s2.4,12,4.7,12c1.2,0,1.8-3.1,2.4-6.2h2.3l17.3-0.1"/>
<path class="st1" d="M43.7,30.2l17.4-0.1h2.3c0.6,3.1,1.2,6.2,2.4,6.2c2.4,0,2.4-12,4.7-12s2.4,12,4.7,12s2.4-12,4.7-12
	s2.4,12,4.7,12s2.4-12,4.7-12s2.4,12,4.7,12s2.4-12,4.7-12s2.4,12,4.7,12c1.2,0,1.8-3.1,2.4-6.2h2.3l17.4-0.1"/>
<circle class="st2" cx="138" cy="30.5" r="30"/>
<circle class="st3" cx="227" cy="30.5" r="30"/>
<circle class="st4" cx="31.8" cy="30.5" r="30"/>
<circle class="st5" cx="334.1" cy="30.5" r="30"/>
</svg>
