<svg id="Layer_1" data-name="Layer 1" xmlns="http://www.w3.org/2000/svg" viewBox="0 0 457.56 157.96"><defs><style>.cls-1{font-size:76px;font-family:TamilMN-Bold, Tamil MN;font-weight:700;}.cls-2,.cls-3{fill:none;}.cls-3{stroke:#000;stroke-miterlimit:10;}.cls-4{fill:#4063d8;}.cls-5{fill:#cb3c33;}.cls-6{fill:#389826;}.cls-7{fill:#9558b2;}</style></defs><text class="cls-1" transform="translate(66.37 132.14)">IonSim.jl</text><line class="cls-2" x1="223.39" y1="-23.23" x2="223.39" y2="-23.23"/><circle class="cls-2" cx="390.73" cy="6.5" r="6.5"/><path class="cls-3" d="M243.63,103.62l11.11-.07h1.48c.39,3.06.78,6.2,1.55,6.2,1.51,0,1.48-12,3-12s1.54,12,3.05,12,1.48-12,3-12,1.54,12,3,12,1.49-12,3-12,1.53,12,3.05,12,1.48-12,3-12,1.54,12,3.05,12c.78,0,1.15-3.13,1.53-6.19H285l11.11-.07" transform="translate(-40.57 -61.02)"/><path class="cls-3" d="M327,103.29l17.28-.12h2.3c.6,3.07,1.18,6.2,2.38,6.2,2.35,0,2.36-12,4.7-12s2.34,12,4.69,12,2.36-12,4.7-12,2.34,12,4.69,12,2.35-12,4.7-12,2.34,12,4.69,12,2.36-12,4.7-12,2.35,12,4.7,12c1.2,0,1.79-3.14,2.4-6.21h2.31l17.27-.11" transform="translate(-40.57 -61.02)"/><path class="cls-3" d="M131.14,102.87l17.35-.11,2.32,0c.6,3.07,1.18,6.21,2.39,6.2,2.35,0,2.36-12,4.72-12s2.35,12,4.71,12,2.36-12,4.72-12,2.35,12,4.7,12,2.37-12,4.73-12,2.35,12,4.71,12,2.36-12,4.72-12,2.36,12,4.72,12c1.21,0,1.8-3.14,2.4-6.21h2.33l17.35-.11" transform="translate(-40.57 -61.02)"/><circle class="cls-4" cx="184.81" cy="41.86" r="24.4"/><circle class="cls-5" cx="273.82" cy="41.86" r="24.4"/><circle class="cls-6" cx="78.62" cy="42.94" r="24.4"/><circle class="cls-7" cx="380.95" cy="41.86" r="24.4"/></svg>